<svg xmlns="http://www.w3.org/2000/svg" xmlns:xlink="http://www.w3.org/1999/xlink" width="250" zoomAndPan="magnify" viewBox="0 0 187.5 187.499992" height="250" preserveAspectRatio="xMidYMid meet" version="1.0"><defs><clipPath id="834a46a48e"><path d="M 18.699219 19.320312 L 166.804688 19.320312 L 166.804688 167.421875 L 18.699219 167.421875 Z M 18.699219 19.320312 " clip-rule="nonzero"/></clipPath></defs><path fill="#1db954" d="M 116.285156 48.546875 C 115.882812 47.902344 115.058594 47.511719 114.414062 47.539062 C 113.652344 47.558594 112.960938 47.980469 112.589844 48.648438 C 106.246094 60.28125 96.808594 69.90625 85.300781 76.472656 C 77.085938 81.160156 71.191406 88.765625 68.699219 97.886719 C 66.207031 107.015625 67.414062 116.558594 72.101562 124.777344 C 73.257812 126.796875 74.644531 128.683594 76.175781 130.4375 C 75.753906 133.730469 75.460938 137.035156 75.453125 140.363281 C 75.453125 141.546875 76.527344 142.484375 77.589844 142.503906 C 78.765625 142.503906 79.730469 141.546875 79.730469 140.371094 C 79.734375 137.382812 79.976562 134.410156 80.335938 131.460938 C 109.316406 125.699219 128.753906 97.859375 123.839844 68.523438 C 122.652344 61.40625 120.109375 54.683594 116.285156 48.546875 Z M 81.046875 126.949219 C 83.917969 111.324219 91.589844 96.75 103.15625 85.652344 C 104.007812 84.835938 104.039062 83.480469 103.222656 82.632812 C 102.40625 81.78125 101.054688 81.75 100.199219 82.566406 C 88.402344 93.882812 80.378906 108.636719 77.113281 124.5 C 76.695312 123.878906 76.195312 123.308594 75.816406 122.65625 C 71.695312 115.4375 70.632812 107.039062 72.824219 99.023438 C 75.019531 91.003906 80.199219 84.316406 87.425781 80.191406 C 98.535156 73.847656 107.820312 64.828125 114.472656 53.953125 C 117 58.738281 118.734375 63.867188 119.632812 69.246094 C 124.070312 95.777344 106.914062 120.980469 81.046875 126.949219 Z M 81.046875 126.949219 " fill-opacity="1" fill-rule="nonzero"/><g clip-path="url(#834a46a48e)"><path fill="#1db954" d="M 93.09375 19.445312 C 52.144531 19.445312 18.828125 52.761719 18.828125 93.714844 C 18.828125 134.664062 52.144531 167.976562 93.09375 167.976562 C 134.046875 167.976562 167.363281 134.664062 167.363281 93.714844 C 167.363281 52.761719 134.046875 19.445312 93.09375 19.445312 Z M 93.09375 163.699219 C 54.503906 163.699219 23.105469 132.300781 23.105469 93.710938 C 23.105469 55.113281 54.5 23.71875 93.09375 23.71875 C 131.691406 23.71875 163.085938 55.113281 163.085938 93.710938 C 163.085938 132.300781 131.683594 163.699219 93.09375 163.699219 Z M 93.09375 163.699219 " fill-opacity="1" fill-rule="nonzero"/></g></svg>