<svg xmlns="http://www.w3.org/2000/svg" xmlns:xlink="http://www.w3.org/1999/xlink" width="250" zoomAndPan="magnify" viewBox="0 0 187.5 187.499992" height="250" preserveAspectRatio="xMidYMid meet" version="1.0"><defs><clipPath id="fbed83322d"><path d="M 0.308594 0.308594 L 186.5625 0.308594 L 186.5625 186.5625 L 0.308594 186.5625 Z M 0.308594 0.308594 " clip-rule="nonzero"/></clipPath></defs><path fill="#15803d" d="M 122.902344 37.027344 C 122.398438 36.214844 121.359375 35.726562 120.550781 35.757812 C 119.59375 35.785156 118.722656 36.316406 118.261719 37.15625 C 110.289062 51.769531 98.4375 63.863281 83.976562 72.113281 C 73.660156 78 66.25 87.554688 63.121094 99.011719 C 59.988281 110.480469 61.507812 122.46875 67.394531 132.789062 C 68.847656 135.332031 70.59375 137.699219 72.515625 139.902344 C 71.984375 144.039062 71.617188 148.191406 71.605469 152.375 C 71.605469 153.863281 72.957031 155.039062 74.292969 155.058594 C 75.769531 155.058594 76.976562 153.863281 76.976562 152.386719 C 76.984375 148.628906 77.289062 144.890625 77.742188 141.191406 C 114.148438 133.949219 138.566406 98.980469 132.394531 62.121094 C 130.898438 53.183594 127.703125 44.734375 122.902344 37.027344 Z M 78.632812 135.519531 C 82.242188 115.894531 91.878906 97.582031 106.40625 83.644531 C 107.476562 82.617188 107.519531 80.914062 106.492188 79.847656 C 105.46875 78.777344 103.769531 78.738281 102.695312 79.765625 C 87.871094 93.984375 77.792969 112.515625 73.691406 132.445312 C 73.164062 131.664062 72.535156 130.949219 72.0625 130.125 C 66.886719 121.058594 65.546875 110.511719 68.304688 100.441406 C 71.058594 90.363281 77.570312 81.960938 86.648438 76.78125 C 100.601562 68.8125 112.265625 57.480469 120.625 43.820312 C 123.800781 49.832031 125.980469 56.273438 127.109375 63.027344 C 132.683594 96.363281 111.128906 128.019531 78.632812 135.519531 Z M 78.632812 135.519531 " fill-opacity="1" fill-rule="nonzero"/><g clip-path="url(#fbed83322d)"><path fill="#15803d" d="M 93.769531 0.46875 C 42.324219 0.46875 0.46875 42.324219 0.46875 93.769531 C 0.46875 145.214844 42.324219 187.0625 93.769531 187.0625 C 145.214844 187.0625 187.066406 145.214844 187.066406 93.769531 C 187.066406 42.324219 145.214844 0.46875 93.769531 0.46875 Z M 93.769531 181.691406 C 45.289062 181.691406 5.839844 142.246094 5.839844 93.761719 C 5.839844 45.277344 45.28125 5.835938 93.769531 5.835938 C 142.253906 5.835938 181.695312 45.277344 181.695312 93.761719 C 181.695312 142.246094 142.246094 181.691406 93.769531 181.691406 Z M 93.769531 181.691406 " fill-opacity="1" fill-rule="nonzero"/></g></svg>